<svg width="190" height="159" viewBox="0 0 190 159" fill="none" xmlns="http://www.w3.org/2000/svg">
<path fill-rule="evenodd" clip-rule="evenodd" d="M9.87012 0.5L0 4.5L95 43L190 4.5L180.13 0.5L95 35L9.87012 0.5Z" fill="#6FFFBA"/>
<path fill-rule="evenodd" clip-rule="evenodd" d="M0 159V9L75 39.7895V56.2127L74.669 56L28 86L74.669 116L75 115.787V159H0ZM80 159V41.8421L95 48L110 41.8421V159H80ZM115 159V158.963L161.338 119.481L115 80V39.7895L189.439 9.23047L143 55.669L189.669 102.338L190 102.007V159H115ZM190 9.33095V9L189.765 9.09632L190 9.33095ZM23.3381 85.3381L51.3381 61.4813L5 22V69.7135V100.963V148.676L51.3381 109.195L23.3381 85.3381Z" fill="#78FFBE"/>
</svg>
