<svg width="198" height="161" viewBox="0 0 198 161" fill="none" xmlns="http://www.w3.org/2000/svg">
<path fill-rule="evenodd" clip-rule="evenodd" d="M13.8701 2.5L4 6.5L99 45L194 6.5L184.13 2.5L99 37L13.8701 2.5Z" fill="black"/>
<path d="M4 6.5L3.43661 5.10982L0.00630351 6.5L3.43661 7.89018L4 6.5ZM13.8701 2.5L14.4335 1.10982L13.8701 0.881502L13.3067 1.10982L13.8701 2.5ZM99 45L98.4366 46.3902L99 46.6185L99.5634 46.3902L99 45ZM194 6.5L194.563 7.89018L197.994 6.5L194.563 5.10982L194 6.5ZM184.13 2.5L184.693 1.10982L184.13 0.881502L183.566 1.10982L184.13 2.5ZM99 37L98.4366 38.3902L99 38.6185L99.5634 38.3902L99 37ZM4.56339 7.89018L14.4335 3.89018L13.3067 1.10982L3.43661 5.10982L4.56339 7.89018ZM99.5634 43.6098L4.56339 5.10982L3.43661 7.89018L98.4366 46.3902L99.5634 43.6098ZM193.437 5.10982L98.4366 43.6098L99.5634 46.3902L194.563 7.89018L193.437 5.10982ZM183.566 3.89018L193.437 7.89018L194.563 5.10982L184.693 1.10982L183.566 3.89018ZM183.566 1.10982L98.4366 35.6098L99.5634 38.3902L184.693 3.89018L183.566 1.10982ZM99.5634 35.6098L14.4335 1.10982L13.3067 3.89018L98.4366 38.3902L99.5634 35.6098Z" fill="#FEA9BD"/>
<mask id="path-3-inside-1_19_53" fill="white">
<path fill-rule="evenodd" clip-rule="evenodd" d="M4 161V11L79 41.7895V58.2127L78.669 58L32 88L78.669 118L79 117.787V161H4ZM84 161V43.8421L99 50L114 43.8421V161H84ZM119 161V160.963L165.338 121.481L119 82V41.7895L193.439 11.2305L147 57.669L193.669 104.338L194 104.007V161H119ZM194 11.3309V11L193.765 11.0963L194 11.3309ZM27.3381 87.3381L55.3381 63.4813L9 24V71.7135V102.963V150.676L55.3381 111.195L27.3381 87.3381Z"/>
</mask>
<path fill-rule="evenodd" clip-rule="evenodd" d="M4 161V11L79 41.7895V58.2127L78.669 58L32 88L78.669 118L79 117.787V161H4ZM84 161V43.8421L99 50L114 43.8421V161H84ZM119 161V160.963L165.338 121.481L119 82V41.7895L193.439 11.2305L147 57.669L193.669 104.338L194 104.007V161H119ZM194 11.3309V11L193.765 11.0963L194 11.3309ZM27.3381 87.3381L55.3381 63.4813L9 24V71.7135V102.963V150.676L55.3381 111.195L27.3381 87.3381Z" fill="black"/>
<path d="M4 11L6.65839 4.52443L-3 0.55941L-3 11H4ZM4 161H-3V168H4V161ZM79 41.7895H86V37.0963L81.6584 35.3139L79 41.7895ZM79 58.2127L75.2149 64.1011L86 71.0339V58.2127H79ZM78.669 58L82.4541 52.1116L78.669 49.6785L74.8839 52.1117L78.669 58ZM32 88L28.2148 82.1117L19.0547 88L28.2148 93.8883L32 88ZM78.669 118L74.8839 123.888L78.669 126.322L82.4541 123.888L78.669 118ZM79 117.787H86V104.966L75.2149 111.899L79 117.787ZM79 161V168H86V161H79ZM84 43.8421L86.6584 37.3665L77 33.4015V43.8421H84ZM84 161H77V168H84V161ZM99 50L96.3416 56.4756L99 57.5669L101.658 56.4756L99 50ZM114 43.8421H121V33.4015L111.342 37.3665L114 43.8421ZM114 161V168H121V161H114ZM119 160.963L114.46 155.634L112 157.731V160.963H119ZM119 161H112V168H119V161ZM165.338 121.481L169.878 126.81L176.132 121.481L169.878 116.153L165.338 121.481ZM119 82H112V85.2321L114.46 87.3282L119 82ZM119 41.7895L116.342 35.3139L112 37.0963V41.7895H119ZM193.439 11.2305L198.388 16.1802L190.78 4.7549L193.439 11.2305ZM147 57.669L142.05 52.7193L137.101 57.669L142.05 62.6188L147 57.669ZM193.669 104.338L188.719 109.288L193.669 114.238L198.619 109.288L193.669 104.338ZM194 104.007H201V87.1071L189.05 99.0575L194 104.007ZM194 161V168H201V161H194ZM194 11H201V0.559255L191.342 4.52447L194 11ZM194 11.3309L189.05 16.2806L201 28.2308V11.3309H194ZM193.765 11.0963L191.107 4.62079L181.383 8.61296L188.816 16.046L193.765 11.0963ZM55.3381 63.4813L59.8779 68.8096L66.1315 63.4813L59.8779 58.1531L55.3381 63.4813ZM27.3381 87.3381L22.7983 82.0099L16.5447 87.3381L22.7983 92.6663L27.3381 87.3381ZM9 24L13.5398 18.6718L2 8.83953L2 24H9ZM9 150.676H2V165.837L13.5398 156.004L9 150.676ZM55.3381 111.195L59.8779 116.523L66.1315 111.195L59.8779 105.867L55.3381 111.195ZM-3 11V161H11V11H-3ZM81.6584 35.3139L6.65839 4.52443L1.34161 17.4756L76.3416 48.265L81.6584 35.3139ZM86 58.2127V41.7895H72V58.2127H86ZM74.8839 63.8884L75.2149 64.1011L82.7851 52.3244L82.4541 52.1116L74.8839 63.8884ZM35.7852 93.8883L82.4542 63.8883L74.8839 52.1117L28.2148 82.1117L35.7852 93.8883ZM82.4542 112.112L35.7852 82.1117L28.2148 93.8883L74.8839 123.888L82.4542 112.112ZM75.2149 111.899L74.8839 112.112L82.4541 123.888L82.7851 123.676L75.2149 111.899ZM86 161V117.787H72V161H86ZM4 168H79V154H4V168ZM77 43.8421V161H91V43.8421H77ZM101.658 43.5244L86.6584 37.3665L81.3416 50.3177L96.3416 56.4756L101.658 43.5244ZM111.342 37.3665L96.3416 43.5244L101.658 56.4756L116.658 50.3177L111.342 37.3665ZM121 161V43.8421H107V161H121ZM84 168H114V154H84V168ZM112 160.963V161H126V160.963H112ZM160.798 116.153L114.46 155.634L123.54 166.291L169.878 126.81L160.798 116.153ZM114.46 87.3282L160.798 126.81L169.878 116.153L123.54 76.6718L114.46 87.3282ZM112 41.7895V82H126V41.7895H112ZM190.78 4.7549L116.342 35.3139L121.658 48.265L196.097 17.706L190.78 4.7549ZM151.95 62.6188L198.388 16.1802L188.489 6.28072L142.05 52.7193L151.95 62.6188ZM198.619 99.3883L151.95 52.7193L142.05 62.6188L188.719 109.288L198.619 99.3883ZM189.05 99.0575L188.719 99.3885L198.619 109.288L198.95 108.957L189.05 99.0575ZM201 161V104.007H187V161H201ZM119 168H194V154H119V168ZM187 11V11.3309H201V11H187ZM196.424 17.5719L196.658 17.4755L191.342 4.52447L191.107 4.62079L196.424 17.5719ZM198.95 6.38128L198.715 6.14665L188.816 16.046L189.05 16.2806L198.95 6.38128ZM50.7983 58.1531L22.7983 82.0099L31.8779 92.6663L59.8779 68.8096L50.7983 58.1531ZM4.46019 29.3282L50.7983 68.8096L59.8779 58.1531L13.5398 18.6718L4.46019 29.3282ZM16 71.7135V24H2V71.7135H16ZM2 71.7135V102.963H16V71.7135H2ZM2 102.963V150.676H16V102.963H2ZM13.5398 156.004L59.8779 116.523L50.7983 105.867L4.46019 145.348L13.5398 156.004ZM59.8779 105.867L31.8779 82.0099L22.7983 92.6663L50.7983 116.523L59.8779 105.867Z" fill="#FEA9BD" mask="url(#path-3-inside-1_19_53)"/>
</svg>
